<?xml version="1.0" standalone="no"?>
<!DOCTYPE svg PUBLIC "-//W3C//DTD SVG 20010904//EN"
 "http://www.w3.org/TR/2001/REC-SVG-20010904/DTD/svg10.dtd">
<svg version="1.0" xmlns="http://www.w3.org/2000/svg"
 width="250.000000pt" height="250.000000pt" viewBox="0 0 250.000000 250.000000"
 preserveAspectRatio="xMidYMid meet">
<metadata>
Created by potrace 1.14, written by Peter Selinger 2001-2017
</metadata>
<g transform="translate(0.000000,250.000000) scale(0.100000,-0.100000)"
fill="#000000" stroke="none">
<path d="M1435 2176 c-47 -22 -135 -98 -135 -117 0 -5 -119 -9 -266 -9 l-266
0 -74 -72 c-41 -39 -74 -78 -74 -86 0 -20 120 -142 140 -142 9 0 34 18 55 40
l39 40 41 -40 c22 -22 47 -40 55 -40 8 0 34 19 58 43 l44 42 41 -48 42 -47 73
0 74 0 45 -51 c68 -75 129 -103 228 -103 98 -1 158 23 228 92 119 117 117 309
-4 431 -91 90 -234 119 -344 67z m290 -231 c50 -49 15 -135 -55 -135 -20 0
-40 9 -57 26 -21 21 -24 32 -19 62 11 70 83 96 131 47z"/>
<path d="M503 1455 c-73 -22 -127 -61 -219 -157 -152 -160 -177 -236 -172
-525 3 -165 5 -184 24 -209 34 -46 70 -67 123 -72 47 -4 51 -7 61 -38 15 -46
55 -91 109 -126 41 -25 53 -28 133 -28 68 0 98 5 127 19 47 25 105 88 122 135
l13 36 428 0 427 0 19 -43 c23 -51 84 -114 129 -133 19 -8 68 -14 119 -14 75
0 93 4 129 25 45 26 84 71 111 129 11 22 25 36 36 36 51 0 121 64 136 125 18
69 34 242 27 275 -9 42 -68 106 -108 119 -18 5 -135 29 -262 51 l-230 42 -95
92 c-158 153 -269 233 -365 262 -67 20 -758 19 -822 -1z m375 -259 c17 -82 19
-112 11 -122 -16 -20 -431 -20 -448 -1 -25 30 100 161 204 213 43 21 61 24
130 22 l80 -3 23 -109z m502 52 c47 -32 110 -80 140 -107 47 -42 53 -51 41
-65 -12 -14 -44 -16 -245 -16 -127 0 -237 4 -243 8 -15 10 -57 207 -49 228 5
13 27 15 139 12 l132 -3 85 -57z m-757 -575 c39 -20 54 -38 66 -80 31 -107
-71 -198 -176 -158 -55 21 -83 63 -83 125 0 100 103 160 193 113z m1377 2 c94
-48 90 -189 -6 -236 -125 -60 -244 80 -167 197 32 50 116 69 173 39z"/>
</g>
</svg>
